<?xml version="1.0" standalone="no"?>
<!DOCTYPE svg PUBLIC "-//W3C//DTD SVG 20010904//EN"
 "http://www.w3.org/TR/2001/REC-SVG-20010904/DTD/svg10.dtd">
<svg version="1.0" xmlns="http://www.w3.org/2000/svg"
 width="1200.000000pt" height="900.000000pt" viewBox="0 0 1200.000000 900.000000"
 preserveAspectRatio="xMidYMid meet">

<g transform="translate(0.000000,900.000000) scale(0.100000,-0.100000)"
fill="#000000" stroke="none">
<path d="M5913 6025 c-90 -41 -109 -100 -55 -174 23 -31 32 -55 32 -82 0 -65
-12 -81 -104 -132 -48 -27 -102 -62 -120 -78 -37 -32 -55 -35 -107 -18 -84 27
-89 30 -89 62 0 17 6 38 14 46 11 13 11 33 0 121 -7 58 -13 106 -13 107 -17
34 -104 45 -146 17 -13 -8 -49 -53 -79 -99 -65 -97 -72 -137 -31 -175 32 -30
33 -73 3 -94 -34 -24 -133 -21 -165 4 -14 11 -33 20 -42 20 -10 0 -27 9 -38
19 -25 24 -42 146 -24 179 15 29 14 106 -3 147 -24 55 -70 69 -140 40 -65 -27
-77 -93 -37 -198 11 -28 -8 -60 -84 -143 -74 -80 -165 -67 -165 24 0 21 13 65
31 102 39 81 43 155 10 181 -52 43 -151 29 -187 -26 -22 -33 -21 -112 1 -154
17 -34 12 -75 -13 -103 -8 -9 -46 -29 -86 -45 -122 -46 -178 -96 -220 -193
-16 -39 -76 -288 -101 -419 -22 -119 -19 -157 15 -221 36 -65 37 -88 9 -124
-21 -27 -22 -32 -13 -224 l9 -197 34 0 34 0 4 175 c2 96 8 195 13 220 5 25 12
81 15 125 11 148 22 164 69 102 22 -29 26 -44 26 -108 1 -106 26 -408 45 -516
8 -51 23 -114 32 -140 14 -37 18 -77 17 -175 -1 -99 2 -128 12 -132 18 -7 56
8 73 28 34 40 61 5 61 -78 0 -47 -3 -56 -17 -56 -10 -1 -104 0 -209 0 -105 0
-197 -2 -205 -5 -12 -4 -14 -57 -12 -337 2 -182 6 -335 11 -340 4 -4 930 -7
2058 -6 l2049 3 3 334 c2 261 -1 336 -10 343 -7 4 -582 7 -1277 7 -1205 -1
-1265 0 -1278 17 -19 26 -16 89 6 132 43 84 54 152 46 289 -10 200 -9 213 20
298 66 195 80 296 59 405 -18 96 -18 135 2 154 24 24 60 19 97 -13 54 -48 62
-90 48 -237 -7 -69 -16 -137 -22 -150 -14 -39 -11 -281 5 -339 8 -27 35 -108
60 -179 30 -82 46 -145 46 -175 0 -52 16 -117 31 -126 21 -14 36 18 54 116 20
110 22 89 -31 368 -8 40 -14 89 -14 107 0 48 74 194 99 194 28 0 31 -38 31
-417 0 -416 -1 -413 92 -413 32 0 58 2 58 6 0 3 -11 22 -25 42 -20 29 -25 49
-25 99 0 34 5 74 11 90 31 82 59 369 59 609 0 184 1 192 26 242 32 64 51 66
96 11 l34 -41 58 29 c55 27 57 29 50 58 -15 64 -11 79 26 97 19 9 45 17 58 18
27 0 27 -2 2 90 -53 191 -132 348 -241 480 -24 29 -39 58 -41 80 -4 41 -17 49
-136 84 l-77 23 -3 58 c-2 43 3 71 19 109 48 111 43 142 -25 174 -58 28 -98
27 -163 -3z m-719 -1418 c68 -89 146 -344 146 -478 0 -25 11 -74 26 -110 25
-62 38 -155 46 -313 l3 -68 -239 1 c-132 0 -241 3 -243 5 -3 2 -5 40 -5 83 -1
72 10 127 52 263 23 75 50 263 50 347 0 81 3 94 35 157 19 37 35 74 35 82 0 7
4 24 10 38 14 38 52 35 84 -7z m-492 -191 c26 -19 37 -88 38 -223 0 -70 4
-124 10 -128 6 -4 10 -71 10 -169 0 -171 4 -186 46 -186 17 0 23 -7 26 -30 3
-17 1 -33 -3 -36 -7 -4 -217 -7 -279 -5 -14 1 -29 40 -46 122 -4 16 8 66 30
130 63 185 96 334 96 435 0 50 3 94 7 97 11 11 47 7 65 -7z m2262 -920 c37
-15 40 -15 71 4 63 39 79 22 73 -85 -4 -77 -24 -84 -75 -26 -19 23 -52 50 -73
61 -107 55 -300 38 -316 -27 -13 -49 21 -63 206 -87 159 -21 214 -34 252 -60
82 -55 67 -129 -36 -181 -58 -29 -64 -30 -195 -29 -101 0 -147 5 -179 17 -42
16 -45 16 -81 -5 -60 -35 -71 -23 -71 77 0 82 1 85 23 85 16 0 31 -12 48 -37
16 -24 45 -48 83 -68 57 -29 65 -30 182 -30 109 0 126 2 151 21 33 24 40 49
22 71 -21 24 -49 31 -222 57 -181 27 -210 36 -249 74 -67 63 -12 150 117 183
50 14 226 4 269 -15z m-2100 -23 c20 -122 -12 -162 -59 -76 -33 60 -77 76
-224 81 -153 5 -153 5 -149 -95 3 -79 9 -83 104 -63 47 10 59 17 76 46 12 20
28 34 39 34 17 0 19 -8 19 -105 0 -99 -1 -105 -20 -105 -12 0 -24 9 -29 23
-18 45 -47 60 -119 61 l-67 1 -3 -73 c-4 -106 -5 -106 150 -100 157 7 209 27
247 96 18 33 28 42 45 40 20 -3 21 -8 17 -78 -2 -41 -5 -78 -8 -82 -2 -5 -161
-8 -354 -8 -304 0 -349 2 -349 15 0 11 11 15 41 15 80 0 79 -2 79 194 0 195 4
186 -76 186 -32 0 -44 4 -44 15 0 13 44 15 339 15 l338 0 7 -37z m721 -128
c66 -90 122 -164 125 -164 3 0 55 74 115 164 l110 165 148 -3 c88 -1 148 -6
150 -12 1 -5 -23 -12 -53 -15 -30 -3 -61 -9 -67 -13 -10 -6 -13 -53 -13 -177
0 -124 3 -171 13 -177 6 -4 37 -10 67 -13 30 -3 55 -9 55 -15 0 -6 -74 -11
-197 -13 -164 -2 -198 0 -198 12 0 10 17 15 60 18 33 2 62 7 65 10 3 3 4 81 3
174 l-3 169 -130 -192 c-112 -166 -134 -192 -156 -193 -22 0 -45 27 -165 191
l-139 192 -3 -153 c-3 -168 4 -190 57 -190 41 0 71 -11 71 -26 0 -11 -30 -14
-159 -14 -158 0 -201 9 -146 30 14 6 39 10 55 10 52 0 60 26 60 197 0 173 0
173 -84 173 -43 0 -63 10 -49 24 3 3 70 6 147 6 l141 0 120 -165z m2265 150
c0 -11 -13 -15 -52 -15 -29 0 -59 -4 -66 -9 -10 -6 -13 -50 -13 -181 0 -95 4
-177 8 -181 4 -4 32 -9 62 -11 32 -2 56 -8 59 -15 3 -10 -41 -13 -197 -13
-172 0 -201 2 -201 15 0 11 12 15 49 15 85 0 81 -10 81 190 0 201 5 190 -87
190 -32 0 -43 4 -43 15 0 13 29 15 200 15 171 0 200 -2 200 -15z"/>
<path d="M7552 3957 c-45 -45 -82 -85 -82 -88 0 -9 159 -169 168 -169 4 0 45
38 92 85 l85 85 -85 85 c-47 47 -87 85 -90 85 -3 0 -42 -37 -88 -83z"/>
</g>
</svg>
